<mxfile host="app.diagrams.net" agent="Mozilla/5.0 (Macintosh; Intel Mac OS X 10_15_7) AppleWebKit/605.1.15 (KHTML, like Gecko) Version/18.4 Safari/605.1.15" version="26.2.9">
  <diagram name="第 1 页" id="1nC2N7lJz_J7A2lghI2Q">
    <mxGraphModel dx="1397" dy="864" grid="1" gridSize="10" guides="1" tooltips="1" connect="1" arrows="1" fold="1" page="1" pageScale="1" pageWidth="827" pageHeight="1169" math="0" shadow="0">
      <root>
        <mxCell id="0" />
        <mxCell id="1" parent="0" />
        <mxCell id="cjV9lJhHkR6KfygZo37P-1" value="" style="shape=table;startSize=0;container=1;collapsible=0;childLayout=tableLayout;fontSize=16;fillColor=#FF3333;" vertex="1" parent="1">
          <mxGeometry x="220" y="150" width="140" height="549" as="geometry" />
        </mxCell>
        <mxCell id="cjV9lJhHkR6KfygZo37P-41" style="shape=tableRow;horizontal=0;startSize=0;swimlaneHead=0;swimlaneBody=0;strokeColor=inherit;top=0;left=0;bottom=0;right=0;collapsible=0;dropTarget=0;fillColor=none;points=[[0,0.5],[1,0.5]];portConstraint=eastwest;fontSize=16;" vertex="1" parent="cjV9lJhHkR6KfygZo37P-1">
          <mxGeometry width="140" height="50" as="geometry" />
        </mxCell>
        <mxCell id="cjV9lJhHkR6KfygZo37P-42" style="shape=partialRectangle;html=1;whiteSpace=wrap;connectable=0;strokeColor=inherit;overflow=hidden;fillColor=none;top=0;left=0;bottom=0;right=0;pointerEvents=1;fontSize=16;labelBackgroundColor=#FF3333;" vertex="1" parent="cjV9lJhHkR6KfygZo37P-41">
          <mxGeometry width="70" height="50" as="geometry">
            <mxRectangle width="70" height="50" as="alternateBounds" />
          </mxGeometry>
        </mxCell>
        <mxCell id="cjV9lJhHkR6KfygZo37P-43" style="shape=partialRectangle;html=1;whiteSpace=wrap;connectable=0;strokeColor=inherit;overflow=hidden;fillColor=#999999;top=0;left=0;bottom=0;right=0;pointerEvents=1;fontSize=16;labelBackgroundColor=#FF3333;" vertex="1" parent="cjV9lJhHkR6KfygZo37P-41">
          <mxGeometry x="70" width="70" height="50" as="geometry">
            <mxRectangle width="70" height="50" as="alternateBounds" />
          </mxGeometry>
        </mxCell>
        <mxCell id="cjV9lJhHkR6KfygZo37P-38" style="shape=tableRow;horizontal=0;startSize=0;swimlaneHead=0;swimlaneBody=0;strokeColor=inherit;top=0;left=0;bottom=0;right=0;collapsible=0;dropTarget=0;fillColor=none;points=[[0,0.5],[1,0.5]];portConstraint=eastwest;fontSize=16;" vertex="1" parent="cjV9lJhHkR6KfygZo37P-1">
          <mxGeometry y="50" width="140" height="49" as="geometry" />
        </mxCell>
        <mxCell id="cjV9lJhHkR6KfygZo37P-39" style="shape=partialRectangle;html=1;whiteSpace=wrap;connectable=0;strokeColor=inherit;overflow=hidden;fillColor=none;top=0;left=0;bottom=0;right=0;pointerEvents=1;fontSize=16;labelBackgroundColor=#FF3333;" vertex="1" parent="cjV9lJhHkR6KfygZo37P-38">
          <mxGeometry width="70" height="49" as="geometry">
            <mxRectangle width="70" height="49" as="alternateBounds" />
          </mxGeometry>
        </mxCell>
        <mxCell id="cjV9lJhHkR6KfygZo37P-40" style="shape=partialRectangle;html=1;whiteSpace=wrap;connectable=0;strokeColor=inherit;overflow=hidden;fillColor=#CCCCCC;top=0;left=0;bottom=0;right=0;pointerEvents=1;fontSize=16;labelBackgroundColor=#FF3333;" vertex="1" parent="cjV9lJhHkR6KfygZo37P-38">
          <mxGeometry x="70" width="70" height="49" as="geometry">
            <mxRectangle width="70" height="49" as="alternateBounds" />
          </mxGeometry>
        </mxCell>
        <mxCell id="cjV9lJhHkR6KfygZo37P-24" style="shape=tableRow;horizontal=0;startSize=0;swimlaneHead=0;swimlaneBody=0;strokeColor=inherit;top=0;left=0;bottom=0;right=0;collapsible=0;dropTarget=0;fillColor=none;points=[[0,0.5],[1,0.5]];portConstraint=eastwest;fontSize=16;" vertex="1" parent="cjV9lJhHkR6KfygZo37P-1">
          <mxGeometry y="99" width="140" height="49" as="geometry" />
        </mxCell>
        <mxCell id="cjV9lJhHkR6KfygZo37P-25" style="shape=partialRectangle;html=1;whiteSpace=wrap;connectable=0;strokeColor=inherit;overflow=hidden;fillColor=none;top=0;left=0;bottom=0;right=0;pointerEvents=1;fontSize=16;labelBackgroundColor=#FF3333;" vertex="1" parent="cjV9lJhHkR6KfygZo37P-24">
          <mxGeometry width="70" height="49" as="geometry">
            <mxRectangle width="70" height="49" as="alternateBounds" />
          </mxGeometry>
        </mxCell>
        <mxCell id="cjV9lJhHkR6KfygZo37P-29" style="shape=partialRectangle;html=1;whiteSpace=wrap;connectable=0;strokeColor=inherit;overflow=hidden;fillColor=#4D4D4D;top=0;left=0;bottom=0;right=0;pointerEvents=1;fontSize=16;labelBackgroundColor=#FF3333;" vertex="1" parent="cjV9lJhHkR6KfygZo37P-24">
          <mxGeometry x="70" width="70" height="49" as="geometry">
            <mxRectangle width="70" height="49" as="alternateBounds" />
          </mxGeometry>
        </mxCell>
        <mxCell id="cjV9lJhHkR6KfygZo37P-22" style="shape=tableRow;horizontal=0;startSize=0;swimlaneHead=0;swimlaneBody=0;strokeColor=inherit;top=0;left=0;bottom=0;right=0;collapsible=0;dropTarget=0;fillColor=none;points=[[0,0.5],[1,0.5]];portConstraint=eastwest;fontSize=16;" vertex="1" parent="cjV9lJhHkR6KfygZo37P-1">
          <mxGeometry y="148" width="140" height="49" as="geometry" />
        </mxCell>
        <mxCell id="cjV9lJhHkR6KfygZo37P-23" style="shape=partialRectangle;html=1;whiteSpace=wrap;connectable=0;strokeColor=inherit;overflow=hidden;fillColor=#FFFFFF;top=0;left=0;bottom=0;right=0;pointerEvents=1;fontSize=16;" vertex="1" parent="cjV9lJhHkR6KfygZo37P-22">
          <mxGeometry width="70" height="49" as="geometry">
            <mxRectangle width="70" height="49" as="alternateBounds" />
          </mxGeometry>
        </mxCell>
        <mxCell id="cjV9lJhHkR6KfygZo37P-30" style="shape=partialRectangle;html=1;whiteSpace=wrap;connectable=0;strokeColor=inherit;overflow=hidden;fillColor=#1A1A1A;top=0;left=0;bottom=0;right=0;pointerEvents=1;fontSize=16;" vertex="1" parent="cjV9lJhHkR6KfygZo37P-22">
          <mxGeometry x="70" width="70" height="49" as="geometry">
            <mxRectangle width="70" height="49" as="alternateBounds" />
          </mxGeometry>
        </mxCell>
        <mxCell id="cjV9lJhHkR6KfygZo37P-20" style="shape=tableRow;horizontal=0;startSize=0;swimlaneHead=0;swimlaneBody=0;strokeColor=inherit;top=0;left=0;bottom=0;right=0;collapsible=0;dropTarget=0;fillColor=#666666;points=[[0,0.5],[1,0.5]];portConstraint=eastwest;fontSize=16;" vertex="1" parent="cjV9lJhHkR6KfygZo37P-1">
          <mxGeometry y="197" width="140" height="49" as="geometry" />
        </mxCell>
        <mxCell id="cjV9lJhHkR6KfygZo37P-21" style="shape=partialRectangle;html=1;whiteSpace=wrap;connectable=0;strokeColor=inherit;overflow=hidden;fillColor=#FFFFFF;top=0;left=0;bottom=0;right=0;pointerEvents=1;fontSize=16;" vertex="1" parent="cjV9lJhHkR6KfygZo37P-20">
          <mxGeometry width="70" height="49" as="geometry">
            <mxRectangle width="70" height="49" as="alternateBounds" />
          </mxGeometry>
        </mxCell>
        <mxCell id="cjV9lJhHkR6KfygZo37P-31" style="shape=partialRectangle;html=1;whiteSpace=wrap;connectable=0;strokeColor=inherit;overflow=hidden;fillColor=#E6E6E6;top=0;left=0;bottom=0;right=0;pointerEvents=1;fontSize=16;" vertex="1" parent="cjV9lJhHkR6KfygZo37P-20">
          <mxGeometry x="70" width="70" height="49" as="geometry">
            <mxRectangle width="70" height="49" as="alternateBounds" />
          </mxGeometry>
        </mxCell>
        <mxCell id="cjV9lJhHkR6KfygZo37P-18" style="shape=tableRow;horizontal=0;startSize=0;swimlaneHead=0;swimlaneBody=0;strokeColor=inherit;top=0;left=0;bottom=0;right=0;collapsible=0;dropTarget=0;fillColor=none;points=[[0,0.5],[1,0.5]];portConstraint=eastwest;fontSize=16;" vertex="1" parent="cjV9lJhHkR6KfygZo37P-1">
          <mxGeometry y="246" width="140" height="49" as="geometry" />
        </mxCell>
        <mxCell id="cjV9lJhHkR6KfygZo37P-19" style="shape=partialRectangle;html=1;whiteSpace=wrap;connectable=0;strokeColor=inherit;overflow=hidden;fillColor=none;top=0;left=0;bottom=0;right=0;pointerEvents=1;fontSize=16;" vertex="1" parent="cjV9lJhHkR6KfygZo37P-18">
          <mxGeometry width="70" height="49" as="geometry">
            <mxRectangle width="70" height="49" as="alternateBounds" />
          </mxGeometry>
        </mxCell>
        <mxCell id="cjV9lJhHkR6KfygZo37P-32" style="shape=partialRectangle;html=1;whiteSpace=wrap;connectable=0;strokeColor=inherit;overflow=hidden;fillColor=#B3B3B3;top=0;left=0;bottom=0;right=0;pointerEvents=1;fontSize=16;" vertex="1" parent="cjV9lJhHkR6KfygZo37P-18">
          <mxGeometry x="70" width="70" height="49" as="geometry">
            <mxRectangle width="70" height="49" as="alternateBounds" />
          </mxGeometry>
        </mxCell>
        <mxCell id="cjV9lJhHkR6KfygZo37P-16" style="shape=tableRow;horizontal=0;startSize=0;swimlaneHead=0;swimlaneBody=0;strokeColor=inherit;top=0;left=0;bottom=0;right=0;collapsible=0;dropTarget=0;fillColor=none;points=[[0,0.5],[1,0.5]];portConstraint=eastwest;fontSize=16;" vertex="1" parent="cjV9lJhHkR6KfygZo37P-1">
          <mxGeometry y="295" width="140" height="49" as="geometry" />
        </mxCell>
        <mxCell id="cjV9lJhHkR6KfygZo37P-17" style="shape=partialRectangle;html=1;whiteSpace=wrap;connectable=0;strokeColor=inherit;overflow=hidden;fillColor=#FFFFFF;top=0;left=0;bottom=0;right=0;pointerEvents=1;fontSize=16;" vertex="1" parent="cjV9lJhHkR6KfygZo37P-16">
          <mxGeometry width="70" height="49" as="geometry">
            <mxRectangle width="70" height="49" as="alternateBounds" />
          </mxGeometry>
        </mxCell>
        <mxCell id="cjV9lJhHkR6KfygZo37P-33" style="shape=partialRectangle;html=1;whiteSpace=wrap;connectable=0;strokeColor=inherit;overflow=hidden;fillColor=#808080;top=0;left=0;bottom=0;right=0;pointerEvents=1;fontSize=16;" vertex="1" parent="cjV9lJhHkR6KfygZo37P-16">
          <mxGeometry x="70" width="70" height="49" as="geometry">
            <mxRectangle width="70" height="49" as="alternateBounds" />
          </mxGeometry>
        </mxCell>
        <mxCell id="cjV9lJhHkR6KfygZo37P-14" style="shape=tableRow;horizontal=0;startSize=0;swimlaneHead=0;swimlaneBody=0;strokeColor=inherit;top=0;left=0;bottom=0;right=0;collapsible=0;dropTarget=0;fillColor=none;points=[[0,0.5],[1,0.5]];portConstraint=eastwest;fontSize=16;" vertex="1" parent="cjV9lJhHkR6KfygZo37P-1">
          <mxGeometry y="344" width="140" height="49" as="geometry" />
        </mxCell>
        <mxCell id="cjV9lJhHkR6KfygZo37P-15" style="shape=partialRectangle;html=1;whiteSpace=wrap;connectable=0;strokeColor=inherit;overflow=hidden;fillColor=none;top=0;left=0;bottom=0;right=0;pointerEvents=1;fontSize=16;" vertex="1" parent="cjV9lJhHkR6KfygZo37P-14">
          <mxGeometry width="70" height="49" as="geometry">
            <mxRectangle width="70" height="49" as="alternateBounds" />
          </mxGeometry>
        </mxCell>
        <mxCell id="cjV9lJhHkR6KfygZo37P-34" style="shape=partialRectangle;html=1;whiteSpace=wrap;connectable=0;strokeColor=inherit;overflow=hidden;fillColor=#E6E6E6;top=0;left=0;bottom=0;right=0;pointerEvents=1;fontSize=16;" vertex="1" parent="cjV9lJhHkR6KfygZo37P-14">
          <mxGeometry x="70" width="70" height="49" as="geometry">
            <mxRectangle width="70" height="49" as="alternateBounds" />
          </mxGeometry>
        </mxCell>
        <mxCell id="cjV9lJhHkR6KfygZo37P-2" value="" style="shape=tableRow;horizontal=0;startSize=0;swimlaneHead=0;swimlaneBody=0;strokeColor=inherit;top=0;left=0;bottom=0;right=0;collapsible=0;dropTarget=0;fillColor=none;points=[[0,0.5],[1,0.5]];portConstraint=eastwest;fontSize=16;" vertex="1" parent="cjV9lJhHkR6KfygZo37P-1">
          <mxGeometry y="393" width="140" height="49" as="geometry" />
        </mxCell>
        <mxCell id="cjV9lJhHkR6KfygZo37P-3" value="" style="shape=partialRectangle;html=1;whiteSpace=wrap;connectable=0;strokeColor=inherit;overflow=hidden;fillColor=#FFFFFF;top=0;left=0;bottom=0;right=0;pointerEvents=1;fontSize=16;" vertex="1" parent="cjV9lJhHkR6KfygZo37P-2">
          <mxGeometry width="70" height="49" as="geometry">
            <mxRectangle width="70" height="49" as="alternateBounds" />
          </mxGeometry>
        </mxCell>
        <mxCell id="cjV9lJhHkR6KfygZo37P-35" style="shape=partialRectangle;html=1;whiteSpace=wrap;connectable=0;strokeColor=inherit;overflow=hidden;fillColor=#FFFFFF;top=0;left=0;bottom=0;right=0;pointerEvents=1;fontSize=16;" vertex="1" parent="cjV9lJhHkR6KfygZo37P-2">
          <mxGeometry x="70" width="70" height="49" as="geometry">
            <mxRectangle width="70" height="49" as="alternateBounds" />
          </mxGeometry>
        </mxCell>
        <mxCell id="cjV9lJhHkR6KfygZo37P-6" value="" style="shape=tableRow;horizontal=0;startSize=0;swimlaneHead=0;swimlaneBody=0;strokeColor=inherit;top=0;left=0;bottom=0;right=0;collapsible=0;dropTarget=0;fillColor=none;points=[[0,0.5],[1,0.5]];portConstraint=eastwest;fontSize=16;" vertex="1" parent="cjV9lJhHkR6KfygZo37P-1">
          <mxGeometry y="442" width="140" height="58" as="geometry" />
        </mxCell>
        <mxCell id="cjV9lJhHkR6KfygZo37P-7" value="" style="shape=partialRectangle;html=1;whiteSpace=wrap;connectable=0;strokeColor=inherit;overflow=hidden;fillColor=none;top=0;left=0;bottom=0;right=0;pointerEvents=1;fontSize=16;" vertex="1" parent="cjV9lJhHkR6KfygZo37P-6">
          <mxGeometry width="70" height="58" as="geometry">
            <mxRectangle width="70" height="58" as="alternateBounds" />
          </mxGeometry>
        </mxCell>
        <mxCell id="cjV9lJhHkR6KfygZo37P-36" style="shape=partialRectangle;html=1;whiteSpace=wrap;connectable=0;strokeColor=inherit;overflow=hidden;fillColor=#333333;top=0;left=0;bottom=0;right=0;pointerEvents=1;fontSize=16;" vertex="1" parent="cjV9lJhHkR6KfygZo37P-6">
          <mxGeometry x="70" width="70" height="58" as="geometry">
            <mxRectangle width="70" height="58" as="alternateBounds" />
          </mxGeometry>
        </mxCell>
        <mxCell id="cjV9lJhHkR6KfygZo37P-10" value="" style="shape=tableRow;horizontal=0;startSize=0;swimlaneHead=0;swimlaneBody=0;strokeColor=inherit;top=0;left=0;bottom=0;right=0;collapsible=0;dropTarget=0;fillColor=none;points=[[0,0.5],[1,0.5]];portConstraint=eastwest;fontSize=16;" vertex="1" parent="cjV9lJhHkR6KfygZo37P-1">
          <mxGeometry y="500" width="140" height="49" as="geometry" />
        </mxCell>
        <mxCell id="cjV9lJhHkR6KfygZo37P-11" value="" style="shape=partialRectangle;html=1;whiteSpace=wrap;connectable=0;strokeColor=inherit;overflow=hidden;fillColor=none;top=0;left=0;bottom=0;right=0;pointerEvents=1;fontSize=16;" vertex="1" parent="cjV9lJhHkR6KfygZo37P-10">
          <mxGeometry width="70" height="49" as="geometry">
            <mxRectangle width="70" height="49" as="alternateBounds" />
          </mxGeometry>
        </mxCell>
        <mxCell id="cjV9lJhHkR6KfygZo37P-37" style="shape=partialRectangle;html=1;whiteSpace=wrap;connectable=0;strokeColor=inherit;overflow=hidden;fillColor=#808080;top=0;left=0;bottom=0;right=0;pointerEvents=1;fontSize=16;" vertex="1" parent="cjV9lJhHkR6KfygZo37P-10">
          <mxGeometry x="70" width="70" height="49" as="geometry">
            <mxRectangle width="70" height="49" as="alternateBounds" />
          </mxGeometry>
        </mxCell>
        <mxCell id="cjV9lJhHkR6KfygZo37P-44" value="" style="shape=table;startSize=0;container=1;collapsible=0;childLayout=tableLayout;fontSize=16;fillColor=#FF3333;" vertex="1" parent="1">
          <mxGeometry x="500" y="150" width="70" height="548" as="geometry" />
        </mxCell>
        <mxCell id="cjV9lJhHkR6KfygZo37P-45" style="shape=tableRow;horizontal=0;startSize=0;swimlaneHead=0;swimlaneBody=0;strokeColor=inherit;top=0;left=0;bottom=0;right=0;collapsible=0;dropTarget=0;fillColor=none;points=[[0,0.5],[1,0.5]];portConstraint=eastwest;fontSize=16;" vertex="1" parent="cjV9lJhHkR6KfygZo37P-44">
          <mxGeometry width="70" height="49" as="geometry" />
        </mxCell>
        <mxCell id="cjV9lJhHkR6KfygZo37P-46" style="shape=partialRectangle;html=1;whiteSpace=wrap;connectable=0;strokeColor=inherit;overflow=hidden;fillColor=none;top=0;left=0;bottom=0;right=0;pointerEvents=1;fontSize=16;labelBackgroundColor=#FF3333;" vertex="1" parent="cjV9lJhHkR6KfygZo37P-45">
          <mxGeometry width="70" height="49" as="geometry">
            <mxRectangle width="70" height="49" as="alternateBounds" />
          </mxGeometry>
        </mxCell>
        <mxCell id="cjV9lJhHkR6KfygZo37P-48" style="shape=tableRow;horizontal=0;startSize=0;swimlaneHead=0;swimlaneBody=0;strokeColor=inherit;top=0;left=0;bottom=0;right=0;collapsible=0;dropTarget=0;fillColor=none;points=[[0,0.5],[1,0.5]];portConstraint=eastwest;fontSize=16;" vertex="1" parent="cjV9lJhHkR6KfygZo37P-44">
          <mxGeometry y="49" width="70" height="49" as="geometry" />
        </mxCell>
        <mxCell id="cjV9lJhHkR6KfygZo37P-49" style="shape=partialRectangle;html=1;whiteSpace=wrap;connectable=0;strokeColor=inherit;overflow=hidden;fillColor=none;top=0;left=0;bottom=0;right=0;pointerEvents=1;fontSize=16;labelBackgroundColor=#FF3333;" vertex="1" parent="cjV9lJhHkR6KfygZo37P-48">
          <mxGeometry width="70" height="49" as="geometry">
            <mxRectangle width="70" height="49" as="alternateBounds" />
          </mxGeometry>
        </mxCell>
        <mxCell id="cjV9lJhHkR6KfygZo37P-51" style="shape=tableRow;horizontal=0;startSize=0;swimlaneHead=0;swimlaneBody=0;strokeColor=inherit;top=0;left=0;bottom=0;right=0;collapsible=0;dropTarget=0;fillColor=none;points=[[0,0.5],[1,0.5]];portConstraint=eastwest;fontSize=16;" vertex="1" parent="cjV9lJhHkR6KfygZo37P-44">
          <mxGeometry y="98" width="70" height="49" as="geometry" />
        </mxCell>
        <mxCell id="cjV9lJhHkR6KfygZo37P-52" style="shape=partialRectangle;html=1;whiteSpace=wrap;connectable=0;strokeColor=inherit;overflow=hidden;fillColor=none;top=0;left=0;bottom=0;right=0;pointerEvents=1;fontSize=16;labelBackgroundColor=#FF3333;" vertex="1" parent="cjV9lJhHkR6KfygZo37P-51">
          <mxGeometry width="70" height="49" as="geometry">
            <mxRectangle width="70" height="49" as="alternateBounds" />
          </mxGeometry>
        </mxCell>
        <mxCell id="cjV9lJhHkR6KfygZo37P-54" style="shape=tableRow;horizontal=0;startSize=0;swimlaneHead=0;swimlaneBody=0;strokeColor=inherit;top=0;left=0;bottom=0;right=0;collapsible=0;dropTarget=0;fillColor=none;points=[[0,0.5],[1,0.5]];portConstraint=eastwest;fontSize=16;" vertex="1" parent="cjV9lJhHkR6KfygZo37P-44">
          <mxGeometry y="147" width="70" height="49" as="geometry" />
        </mxCell>
        <mxCell id="cjV9lJhHkR6KfygZo37P-55" style="shape=partialRectangle;html=1;whiteSpace=wrap;connectable=0;strokeColor=inherit;overflow=hidden;fillColor=#FFFFFF;top=0;left=0;bottom=0;right=0;pointerEvents=1;fontSize=16;" vertex="1" parent="cjV9lJhHkR6KfygZo37P-54">
          <mxGeometry width="70" height="49" as="geometry">
            <mxRectangle width="70" height="49" as="alternateBounds" />
          </mxGeometry>
        </mxCell>
        <mxCell id="cjV9lJhHkR6KfygZo37P-57" style="shape=tableRow;horizontal=0;startSize=0;swimlaneHead=0;swimlaneBody=0;strokeColor=inherit;top=0;left=0;bottom=0;right=0;collapsible=0;dropTarget=0;fillColor=#666666;points=[[0,0.5],[1,0.5]];portConstraint=eastwest;fontSize=16;" vertex="1" parent="cjV9lJhHkR6KfygZo37P-44">
          <mxGeometry y="196" width="70" height="49" as="geometry" />
        </mxCell>
        <mxCell id="cjV9lJhHkR6KfygZo37P-58" style="shape=partialRectangle;html=1;whiteSpace=wrap;connectable=0;strokeColor=inherit;overflow=hidden;fillColor=#FFFFFF;top=0;left=0;bottom=0;right=0;pointerEvents=1;fontSize=16;" vertex="1" parent="cjV9lJhHkR6KfygZo37P-57">
          <mxGeometry width="70" height="49" as="geometry">
            <mxRectangle width="70" height="49" as="alternateBounds" />
          </mxGeometry>
        </mxCell>
        <mxCell id="cjV9lJhHkR6KfygZo37P-60" style="shape=tableRow;horizontal=0;startSize=0;swimlaneHead=0;swimlaneBody=0;strokeColor=inherit;top=0;left=0;bottom=0;right=0;collapsible=0;dropTarget=0;fillColor=none;points=[[0,0.5],[1,0.5]];portConstraint=eastwest;fontSize=16;" vertex="1" parent="cjV9lJhHkR6KfygZo37P-44">
          <mxGeometry y="245" width="70" height="49" as="geometry" />
        </mxCell>
        <mxCell id="cjV9lJhHkR6KfygZo37P-61" style="shape=partialRectangle;html=1;whiteSpace=wrap;connectable=0;strokeColor=inherit;overflow=hidden;fillColor=none;top=0;left=0;bottom=0;right=0;pointerEvents=1;fontSize=16;" vertex="1" parent="cjV9lJhHkR6KfygZo37P-60">
          <mxGeometry width="70" height="49" as="geometry">
            <mxRectangle width="70" height="49" as="alternateBounds" />
          </mxGeometry>
        </mxCell>
        <mxCell id="cjV9lJhHkR6KfygZo37P-63" style="shape=tableRow;horizontal=0;startSize=0;swimlaneHead=0;swimlaneBody=0;strokeColor=inherit;top=0;left=0;bottom=0;right=0;collapsible=0;dropTarget=0;fillColor=none;points=[[0,0.5],[1,0.5]];portConstraint=eastwest;fontSize=16;" vertex="1" parent="cjV9lJhHkR6KfygZo37P-44">
          <mxGeometry y="294" width="70" height="49" as="geometry" />
        </mxCell>
        <mxCell id="cjV9lJhHkR6KfygZo37P-64" style="shape=partialRectangle;html=1;whiteSpace=wrap;connectable=0;strokeColor=inherit;overflow=hidden;fillColor=#FFFFFF;top=0;left=0;bottom=0;right=0;pointerEvents=1;fontSize=16;" vertex="1" parent="cjV9lJhHkR6KfygZo37P-63">
          <mxGeometry width="70" height="49" as="geometry">
            <mxRectangle width="70" height="49" as="alternateBounds" />
          </mxGeometry>
        </mxCell>
        <mxCell id="cjV9lJhHkR6KfygZo37P-66" style="shape=tableRow;horizontal=0;startSize=0;swimlaneHead=0;swimlaneBody=0;strokeColor=inherit;top=0;left=0;bottom=0;right=0;collapsible=0;dropTarget=0;fillColor=none;points=[[0,0.5],[1,0.5]];portConstraint=eastwest;fontSize=16;" vertex="1" parent="cjV9lJhHkR6KfygZo37P-44">
          <mxGeometry y="343" width="70" height="49" as="geometry" />
        </mxCell>
        <mxCell id="cjV9lJhHkR6KfygZo37P-67" style="shape=partialRectangle;html=1;whiteSpace=wrap;connectable=0;strokeColor=inherit;overflow=hidden;fillColor=none;top=0;left=0;bottom=0;right=0;pointerEvents=1;fontSize=16;" vertex="1" parent="cjV9lJhHkR6KfygZo37P-66">
          <mxGeometry width="70" height="49" as="geometry">
            <mxRectangle width="70" height="49" as="alternateBounds" />
          </mxGeometry>
        </mxCell>
        <mxCell id="cjV9lJhHkR6KfygZo37P-69" value="" style="shape=tableRow;horizontal=0;startSize=0;swimlaneHead=0;swimlaneBody=0;strokeColor=inherit;top=0;left=0;bottom=0;right=0;collapsible=0;dropTarget=0;fillColor=none;points=[[0,0.5],[1,0.5]];portConstraint=eastwest;fontSize=16;" vertex="1" parent="cjV9lJhHkR6KfygZo37P-44">
          <mxGeometry y="392" width="70" height="49" as="geometry" />
        </mxCell>
        <mxCell id="cjV9lJhHkR6KfygZo37P-70" value="" style="shape=partialRectangle;html=1;whiteSpace=wrap;connectable=0;strokeColor=inherit;overflow=hidden;fillColor=#FFFFFF;top=0;left=0;bottom=0;right=0;pointerEvents=1;fontSize=16;" vertex="1" parent="cjV9lJhHkR6KfygZo37P-69">
          <mxGeometry width="70" height="49" as="geometry">
            <mxRectangle width="70" height="49" as="alternateBounds" />
          </mxGeometry>
        </mxCell>
        <mxCell id="cjV9lJhHkR6KfygZo37P-72" value="" style="shape=tableRow;horizontal=0;startSize=0;swimlaneHead=0;swimlaneBody=0;strokeColor=inherit;top=0;left=0;bottom=0;right=0;collapsible=0;dropTarget=0;fillColor=none;points=[[0,0.5],[1,0.5]];portConstraint=eastwest;fontSize=16;" vertex="1" parent="cjV9lJhHkR6KfygZo37P-44">
          <mxGeometry y="441" width="70" height="58" as="geometry" />
        </mxCell>
        <mxCell id="cjV9lJhHkR6KfygZo37P-73" value="" style="shape=partialRectangle;html=1;whiteSpace=wrap;connectable=0;strokeColor=inherit;overflow=hidden;fillColor=none;top=0;left=0;bottom=0;right=0;pointerEvents=1;fontSize=16;" vertex="1" parent="cjV9lJhHkR6KfygZo37P-72">
          <mxGeometry width="70" height="58" as="geometry">
            <mxRectangle width="70" height="58" as="alternateBounds" />
          </mxGeometry>
        </mxCell>
        <mxCell id="cjV9lJhHkR6KfygZo37P-75" value="" style="shape=tableRow;horizontal=0;startSize=0;swimlaneHead=0;swimlaneBody=0;strokeColor=inherit;top=0;left=0;bottom=0;right=0;collapsible=0;dropTarget=0;fillColor=none;points=[[0,0.5],[1,0.5]];portConstraint=eastwest;fontSize=16;" vertex="1" parent="cjV9lJhHkR6KfygZo37P-44">
          <mxGeometry y="499" width="70" height="49" as="geometry" />
        </mxCell>
        <mxCell id="cjV9lJhHkR6KfygZo37P-76" value="" style="shape=partialRectangle;html=1;whiteSpace=wrap;connectable=0;strokeColor=inherit;overflow=hidden;fillColor=none;top=0;left=0;bottom=0;right=0;pointerEvents=1;fontSize=16;" vertex="1" parent="cjV9lJhHkR6KfygZo37P-75">
          <mxGeometry width="70" height="49" as="geometry">
            <mxRectangle width="70" height="49" as="alternateBounds" />
          </mxGeometry>
        </mxCell>
        <mxCell id="cjV9lJhHkR6KfygZo37P-78" value="" style="edgeStyle=segmentEdgeStyle;endArrow=classic;html=1;curved=0;rounded=0;endSize=8;startSize=8;exitX=0.521;exitY=-0.02;exitDx=0;exitDy=0;exitPerimeter=0;entryX=0.571;entryY=0;entryDx=0;entryDy=0;entryPerimeter=0;" edge="1" parent="1" source="cjV9lJhHkR6KfygZo37P-41" target="cjV9lJhHkR6KfygZo37P-45">
          <mxGeometry width="50" height="50" relative="1" as="geometry">
            <mxPoint x="364" y="110" as="sourcePoint" />
            <mxPoint x="414" y="60" as="targetPoint" />
            <Array as="points">
              <mxPoint x="290" y="149" />
              <mxPoint x="290" y="90" />
              <mxPoint x="540" y="90" />
            </Array>
          </mxGeometry>
        </mxCell>
      </root>
    </mxGraphModel>
  </diagram>
</mxfile>
